HIERARCHY
ROOT Hips
{
  OFFSET 40.9192 92.6879 18.85
  CHANNELS 6 Xposition Yposition Zposition Zrotation Xrotation Yrotation
  JOINT LeftUpLeg
  {
    OFFSET 8.64259 1.95398 -2.38835
    CHANNELS 3 Zrotation Xrotation Yrotation
    JOINT LeftLeg
    {
      OFFSET 43.7702 0 0
      CHANNELS 3 Zrotation Xrotation Yrotation
      JOINT LeftFoot
      {
        OFFSET 40.6238 0 0
        CHANNELS 3 Zrotation Xrotation Yrotation
        JOINT LeftToeBase
        {
          OFFSET 12.7242 0 0
          CHANNELS 3 Zrotation Xrotation Yrotation
          End Site
          {
            OFFSET 0 0 0
          }
        }
      }
    }
  }
  JOINT RightUpLeg
  {
    OFFSET -8.2249 1.95398 -2.59336
    CHANNELS 3 Zrotation Xrotation Yrotation
    JOINT RightLeg
    {
      OFFSET 43.5653 0 0
      CHANNELS 3 Zrotation Xrotation Yrotation
      JOINT RightFoot
      {
        OFFSET 40.6238 0 0
        CHANNELS 3 Zrotation Xrotation Yrotation
        JOINT RightToeBase
        {
          OFFSET 12.7242 0 0
          CHANNELS 3 Zrotation Xrotation Yrotation
          End Site
          {
            OFFSET 0 0 0
          }
        }
      }
    }
  }
  JOINT Spine
  {
    OFFSET 0.165834 0.87714 6.61349
    CHANNELS 3 Zrotation Xrotation Yrotation
    JOINT Spine1
    {
      OFFSET 7.38963 1.71661e-005 0
      CHANNELS 3 Zrotation Xrotation Yrotation
      JOINT Spine2
      {
        OFFSET 11.9445 1.14441e-005 0
        CHANNELS 3 Zrotation Xrotation Yrotation
        JOINT Spine3
        {
          OFFSET 14.7254 4.19617e-005 0
          CHANNELS 3 Zrotation Xrotation Yrotation
          JOINT Spine4
          {
            OFFSET 10.9679 0 0
            CHANNELS 3 Zrotation Xrotation Yrotation
            JOINT RightShoulder
            {
              OFFSET 2.46616 -1.6653 3.69651
              CHANNELS 3 Zrotation Xrotation Yrotation
              JOINT RightArm
              {
                OFFSET 13.0012 0 0
                CHANNELS 3 Zrotation Xrotation Yrotation
                JOINT RightForeArm
                {
                  OFFSET 28.7848 1.52588e-005 0
                  CHANNELS 3 Zrotation Xrotation Yrotation
                  JOINT RightHand
                  {
                    OFFSET 26.5688 1.52588e-005 0
                    CHANNELS 3 Zrotation Xrotation Yrotation
                    End Site
                    {
                      OFFSET 0 0 0
                    }
                  }
                }
              }
            }
            JOINT LeftShoulder
            {
              OFFSET 2.38034 -1.29275 -3.7523
              CHANNELS 3 Zrotation Xrotation Yrotation
              JOINT LeftArm
              {
                OFFSET 16.3182 6.10351e-005 0
                CHANNELS 3 Zrotation Xrotation Yrotation
                JOINT LeftForeArm
                {
                  OFFSET 27.0901 0 0
                  CHANNELS 3 Zrotation Xrotation Yrotation
                  JOINT LeftHand
                  {
                    OFFSET 24.5451 1.52588e-005 0
                    CHANNELS 3 Zrotation Xrotation Yrotation
                    End Site
                    {
                      OFFSET 0 0 0
                    }
                  }
                }
              }
            }
            JOINT Neck
            {
              OFFSET 5.0226 -0.0266342 0
              CHANNELS 3 Zrotation Xrotation Yrotation
              JOINT Head
              {
                OFFSET 6.69363 2.86102e-005 0
                CHANNELS 3 Zrotation Xrotation Yrotation
                End Site
                {
                  OFFSET 0 0 0
                }
              }
            }
          }
        }
      }
    }
  }
}
MOTION
Frames:	15
Frame Time:	0.0416667
-165.065 96.6983 -174.689 90.6603 -36.6603 91.8126 -169.644 5.99605 92.5067 -14.7259 8.61421 -3.62541 66.5775 4.30067 3.52138 28.1015 -0.624427 0.780432 174.484 3.97262 91.7629 -11.4767 -7.19253 0.33534 65.0967 -2.83321 -1.58893 28.5668 0.265429 -4.16672 0.0472995 6.44867 -90.1472 13.9765 0.0219131 -0.29808 2.30549 0.0087896 -0.298766 -20.2294 0.110475 -0.277712 -0.216772 0.110488 -0.277717 95.9131 -47.8388 -91.9795 26.3374 -20.0468 6.04092 7.80962 -6.51682 -86.9745 -1.1781 0.104154 -5.00393 -95.5969 -49.5023 70.2757 -23.9423 12.0777 11.4588 -18.8739 -5.79099 -87.484 17.0522 -0.0487138 -4.12565 9.73845 -0.877845 0.996686 -8.32652 -1.03633 -0.779452 
-164.919 96.6564 -174.843 90.2019 -38.1361 92.0798 -169.443 6.44085 92.8385 -15.1424 6.59866 -3.64107 67.2958 4.23023 2.50584 27.9381 -0.800407 1.1711 175.084 3.42416 92.4133 -9.52319 -7.73728 0.0840257 64.8691 -3.03463 -1.73103 27.7922 0.235454 -3.8716 0.234226 6.40109 -90.2023 14.0723 0.365199 -0.455518 2.40136 0.344808 -0.471156 -20.1339 0.485228 -0.3247 -0.121211 0.485226 -0.324701 95.7829 -47.9805 -92.168 26.1991 -21.2545 5.82887 11.8363 -4.7137 -86.4836 -7.12508 0.128054 -6.51689 -95.8614 -49.5834 69.9102 -23.8332 12.2706 11.6087 -20.0694 -6.00603 -87.3058 14.8665 -0.339479 -5.99565 10.0586 -0.192064 -0.410154 -10.444 -0.149842 0.907088 
-164.536 96.6821 -174.819 90.7001 -39.8338 93.581 -168.804 6.26753 93.9985 -15.9467 5.52705 -3.6782 68.1386 4.22104 2.32739 27.9131 -0.839589 1.33549 175.84 1.91439 93.3401 -7.46901 -8.93198 -0.0484943 64.0262 -2.97218 -1.74261 27.105 0.338779 -5.35721 0.449573 6.42205 -90.3277 14.032 0.7308 -0.75628 2.36102 0.696818 -0.787716 -20.1749 0.924287 -0.501678 -0.162212 0.924311 -0.501681 95.879 -48.0226 -92.0099 26.5141 -25.5034 5.49064 23.4526 -0.323197 -88.729 -14.4904 0.158716 -6.23287 -95.822 -49.4909 69.9396 -24.1969 12.611 11.6071 -21.7605 -6.0322 -87.5343 16.5956 -0.338041 -5.85394 9.6524 0.0454586 -0.655179 -11.0664 0.112767 1.1354 
-163.968 96.7006 -174.769 91.588 -42.0837 95.8815 -167.955 5.91794 95.6454 -16.9663 4.35211 -3.69269 69.3 4.31025 2.6536 27.8012 -0.870213 0.818226 176.731 1.2695 94.8056 -7.66659 -10.1947 -0.076733 63.9454 -2.89778 -1.70556 27.7145 0.329824 -5.19853 0.744283 6.48414 -90.5281 13.9118 1.21773 -1.22222 2.24078 1.16275 -1.27464 -20.2966 1.52874 -0.799729 -0.283983 1.52873 -0.79973 96.0692 -47.9365 -91.7186 26.5106 -25.2051 5.47742 22.9454 -0.290838 -88.7255 -13.8524 0.157216 -6.23419 -95.8187 -49.6466 69.9927 -24.1354 12.7635 11.3855 -22.4224 -5.99375 -87.6533 16.9762 -0.349729 -5.89308 9.62997 0.0877702 -0.510219 -11.4681 0.122665 1.11214 
-163.297 96.7335 -174.73 92.937 -44.3567 98.9974 -166.941 5.498 97.7976 -18.0798 3.44837 -3.69812 70.3003 4.12167 2.45673 28.3032 -0.507284 1.19078 177.832 0.188685 96.5809 -7.66185 -11.7581 -0.0924796 64.5609 -3.0859 -1.80588 26.9014 0.335609 -5.31516 1.04148 6.54948 -90.7591 13.787 1.69535 -1.74607 2.11588 1.61691 -1.81898 -20.4233 2.14174 -1.15578 -0.410696 2.1417 -1.15579 95.9506 -47.6118 -91.9488 27.0897 -24.863 5.7909 22.1477 -0.640912 -88.7633 -13.6269 0.141233 -6.06399 -95.7796 -49.5167 70.0103 -24.1646 12.2551 11.9669 -20.5317 -5.80132 -87.9699 15.1158 -0.266187 -5.51193 9.60131 0.0675312 -0.562941 -11.6459 0.107035 1.18199 
-162.599 96.738 -174.656 94.6413 -46.3836 102.321 -166.057 4.91041 99.7922 -19.3776 1.87177 -3.58338 71.8487 4.1061 2.03673 28.0366 -0.736911 1.31357 178.735 -0.912581 98.2119 -7.66283 -12.599 0.115584 63.9508 -2.82254 -1.67284 27.3076 0.291419 -4.7273 1.31221 6.63588 -90.9875 13.6213 2.12313 -2.25469 1.94993 2.02187 -2.34592 -20.5909 2.70249 -1.51235 -0.578306 2.70251 -1.51234 95.9934 -47.6666 -91.8735 26.9514 -24.9582 5.64199 22.1621 -0.568711 -88.3229 -13.8394 0.215957 -6.89758 -95.8973 -49.5306 69.841 -24.0675 12.5053 11.7213 -21.1768 -5.88501 -87.807 16.3162 -0.224801 -5.18555 9.43925 0.0991472 -0.432657 -11.8365 0.116535 1.07658 
-161.918 96.716 -174.57 96.3488 -47.9646 105.568 -165.235 4.37693 101.7 -20.4117 1.07614 -3.51616 73.0246 4.10885 2.11992 27.9952 -0.749545 1.13063 179.744 -2.03044 99.8003 -7.65828 -13.7531 0.140056 64.4981 -2.9989 -1.76737 27.0863 0.303373 -4.8948 1.53013 6.70895 -91.1983 13.4823 2.45504 -2.71516 1.8106 2.33322 -2.82052 -20.731 3.15738 -1.8518 -0.718329 3.15739 -1.85181 95.8944 -48.1241 -91.9722 26.3969 -24.9949 5.63025 21.984 -0.560265 -88.3589 -13.6491 0.197838 -6.69401 -95.5772 -49.3396 70.2549 -24.2186 12.6847 11.6938 -20.9523 -5.99693 -87.6801 15.9215 -0.178105 -4.92136 9.11106 0.12123 -0.508381 -12.2282 0.143515 1.14427 
-161.316 96.6603 -174.486 98.1219 -48.9211 108.705 -164.493 3.95493 103.514 -21.5503 0.614089 -3.43718 74.0925 4.16995 2.20904 28.1944 -0.542981 0.718038 -179.384 -3.15413 101.238 -7.62902 -14.2205 0.263963 64.4443 -2.95842 -1.74611 27.3845 0.29146 -4.70835 1.69498 6.77787 -91.4009 13.3505 2.68641 -3.14462 1.67822 2.54546 -3.25971 -20.8623 3.50701 -2.192 -0.849627 3.50703 -2.19201 95.9776 -48.2949 -91.8188 26.257 -25.1509 5.71205 22.3781 -0.480346 -88.6722 -13.8655 0.145993 -6.12756 -95.8964 -49.4356 69.8126 -23.9467 12.3786 11.663 -20.0376 -6.01893 -87.3905 15.0616 -0.216116 -5.18572 8.24412 0.13103 -0.659974 -12.5471 0.141872 1.62421 
-160.848 96.6644 -174.402 99.5292 -49.4901 111.089 -163.99 3.51698 104.818 -22.2649 0.293362 -3.3029 74.7824 4.13427 1.97437 28.3538 -0.472849 1.25024 -178.77 -3.97433 102.287 -7.63657 -14.6155 0.391422 64.3504 -2.91142 -1.7277 27.6489 0.308782 -4.91847 1.81721 6.85452 -91.5629 13.202 2.85348 -3.48309 1.52918 2.69751 -3.60517 -21.0098 3.76803 -2.46475 -0.997143 3.76801 -2.46476 96.1113 -48.2341 -91.6147 26.3085 -24.7511 5.67736 22.3429 -0.330899 -88.6152 -13.1315 0.186162 -6.52338 -95.767 -49.2546 69.9476 -24.2137 12.8439 11.1244 -21.2615 -6.06086 -87.4717 16.5186 -0.160199 -4.78854 7.20132 0.300545 -0.506057 -12.5092 0.27311 1.68657 
-160.644 96.6223 -174.37 100.252 -49.9074 112.236 -163.571 3.29257 105.498 -22.494 0.338402 -3.43919 75.153 4.30731 2.16082 28.1725 -0.57108 0.81261 -178.167 -4.3289 102.895 -7.75743 -15.0484 0.114597 65.0904 -3.23117 -1.89718 27.4248 0.320484 -5.09235 1.87416 6.89987 -91.628 13.1135 2.93688 -3.61967 1.44051 2.77484 -3.74526 -21.0981 3.88856 -2.57 -1.08547 3.88857 -2.57 96.0191 -48.1762 -91.768 26.2802 -24.7751 5.4913 22.2002 -0.397645 -88.6747 -13.255 0.149859 -6.11813 -95.7019 -49.3525 70.0743 -23.8227 12.797 10.7765 -19.7158 -6.0572 -87.3739 15.1489 -0.155148 -4.78992 5.93662 0.458396 -0.525117 -14.9266 0.383371 1.79604 
-160.808 96.6378 -174.396 100.188 -50.0729 111.866 -163.563 3.21649 105.197 -22.2882 0.171972 -3.49877 75.1391 4.53459 2.079 27.8998 -0.792124 0.82866 -177.953 -3.98155 102.854 -8.03073 -14.8594 -0.217892 64.6849 -3.16608 -1.88438 27.8786 0.315234 -4.99367 1.84398 6.97542 -91.5655 12.9608 2.9099 -3.48408 1.28811 2.75383 -3.60865 -21.2521 3.8221 -2.4487 -1.23943 3.82212 -2.4487 95.7117 -48.0578 -92.2709 25.6476 -24.8729 4.44974 22.3509 -0.146448 -88.2904 -13.6191 0.14776 -6.09626 -95.5765 -49.3334 70.2542 -22.8308 12.8938 9.79293 -20.3517 -6.2124 -86.958 14.9493 -0.214103 -5.1718 3.30703 0.769233 -0.161542 -17.3913 0.640099 1.35535 
-161.482 96.5931 -174.53 99.0822 -50.0086 109.476 -164.367 3.79847 103.505 -22.324 -0.156615 -3.40508 74.4105 4.31675 1.90154 28.3158 -0.520621 1.40878 -178.305 -2.90353 101.816 -8.33348 -14.3306 -0.64392 63.9136 -3.00639 -1.82687 28.0851 0.30015 -4.75494 1.73875 7.11055 -91.3357 12.6854 2.81586 -3.00128 1.01372 2.68111 -3.12223 -21.5313 3.58743 -2.01619 -1.51868 3.58746 -2.01619 95.2011 -48.3696 -93.0366 24.2935 -27.4168 2.09686 29.3739 2.01004 -91.1575 -16.3132 -0.191801 -3.15254 -95.5422 -49.2407 70.2764 -21.2464 12.8345 7.80517 -20.5501 -6.43379 -86.1493 15.1087 -0.239876 -5.33626 -0.269877 1.09978 0.105534 -18.9919 0.932914 1.23877 
-162.732 96.5678 -174.739 96.8299 -49.2498 104.646 -165.428 4.42476 100.53 -20.9536 -0.122436 -3.68671 72.7404 4.22389 2.12239 28.3515 -0.477743 1.27833 -178.982 -1.06854 99.7 -8.70912 -13.6411 -1.48869 63.578 -3.14239 -1.9332 27.8788 0.306896 -4.87011 1.5323 7.31038 -90.9118 12.2767 2.61312 -2.11393 0.606475 2.51755 -2.22688 -21.944 3.12751 -1.23049 -1.93138 3.12751 -1.2305 94.7843 -49.2447 -93.5652 21.9018 -25.6142 -0.702845 28.1203 3.04871 -89.3311 -12.6155 -0.387138 1.25667 -96.0722 -49.2034 69.4798 -19.0299 12.1042 5.15454 -20.4694 -6.97485 -84.578 13.0603 -0.302029 -5.93065 -4.10918 1.07397 -0.330642 -19.3238 0.854682 1.94826 
-164.518 96.4328 -175.135 92.8968 -46.9451 97.7159 -167.037 6.70626 96.6618 -19.8461 0.840024 -4.06739 70.8033 4.23998 1.98487 28.0146 -0.804749 1.75203 179.993 2.92107 97.2172 -10.3904 -11.2779 -2.07328 62.7563 -3.22891 -1.99557 28.8985 0.277236 -4.28685 1.13388 7.52572 -90.4081 11.8347 2.06304 -1.03259 0.164918 2.01559 -1.12241 -22.3829 2.27794 -0.364561 -2.37026 2.27794 -0.364562 94.7702 -48.5385 -93.6915 20.6903 -21.2294 -4.44347 24.4517 1.11664 -86.0862 -4.65304 0.163828 -0.975104 -96.9014 -49.0387 68.1996 -16.3831 11.8378 1.95878 -20.8475 -7.50971 -82.8878 13.2967 -0.432202 -6.85875 -6.9058 0.780176 0.105774 -19.0177 0.595076 1.46254 
-166.679 96.1319 -175.863 89.9748 -41.4239 90.3856 -169.431 8.85842 91.5217 -18.191 3.48675 -4.29123 67.6835 4.58863 2.75037 28.0844 -0.656373 0.942653 177.639 10.5044 92.607 -20.1007 -7.61438 -2.47423 66.3981 -3.92066 -2.18673 29.6646 0.277903 -4.12642 0.39144 7.84662 -89.8123 11.178 0.866091 0.289808 -0.49279 0.878016 0.251407 -23.0286 0.738968 0.536712 -3.01599 0.738964 0.536711 94.1321 -48.6301 -94.6816 18.5268 -17.7027 -7.71339 18.1626 -1.98346 -83.2098 -0.325161 0.215314 -5.84643 -98.061 -48.2625 66.2199 -14.1864 11.2086 -1.36548 -23.3491 -8.66683 -80.5997 14.7751 -0.480033 -6.95042 -10.2337 -0.846102 0.266058 -16.6464 -0.931441 0.656818 
